<?xml version="1.0" encoding="UTF-8"?>
<svg xmlns="http://www.w3.org/2000/svg" xmlns:xlink="http://www.w3.org/1999/xlink" width="220px" height="54px" viewBox="0 0 220 54" version="1.1">
<g id="surface1">
<path style=" stroke:none;fill-rule:evenodd;fill:rgb(2.352941%,47.45098%,92.156863%);fill-opacity:1;" d="M 20.273438 8.335938 C 20.621094 8.46875 20.96875 8.613281 21.316406 8.769531 C 21.683594 8.933594 22.054688 9.078125 22.4375 9.203125 C 22.886719 9.34375 23.355469 9.410156 23.828125 9.402344 C 24.4375 9.410156 25.046875 9.320312 25.628906 9.128906 C 26.199219 8.929688 26.726562 8.617188 27.179688 8.210938 L 29.691406 6.101562 C 29.035156 5.3125 28.328125 4.566406 27.578125 3.867188 C 26.804688 3.144531 25.964844 2.492188 25.070312 1.921875 C 24.175781 1.351562 23.222656 0.882812 22.226562 0.53125 C 21.230469 0.175781 20.1875 -0.00390625 19.132812 -0.00390625 C 17.683594 -0.00390625 16.246094 0.226562 14.871094 0.679688 C 13.535156 1.109375 12.285156 1.777344 11.183594 2.652344 C 10.105469 3.511719 9.222656 4.589844 8.585938 5.816406 C 7.914062 7.140625 7.578125 8.609375 7.605469 10.097656 C 7.605469 11.800781 7.902344 13.226562 8.488281 14.378906 C 9.050781 15.496094 9.832031 16.492188 10.785156 17.304688 C 11.757812 18.125 12.835938 18.804688 13.992188 19.328125 C 15.183594 19.875 16.390625 20.378906 17.617188 20.84375 C 18.363281 21.140625 19.074219 21.394531 19.753906 21.609375 C 20.371094 21.800781 20.972656 22.039062 21.554688 22.320312 C 22.023438 22.535156 22.445312 22.84375 22.796875 23.222656 C 23.113281 23.597656 23.277344 24.074219 23.253906 24.566406 C 23.265625 25.117188 23.089844 25.652344 22.757812 26.09375 C 22.417969 26.539062 21.988281 26.914062 21.503906 27.195312 C 20.988281 27.496094 20.4375 27.726562 19.863281 27.878906 C 19.332031 28.027344 18.785156 28.105469 18.238281 28.113281 C 17.546875 28.128906 16.867188 27.972656 16.25 27.667969 C 15.667969 27.371094 15.105469 27.046875 14.5625 26.699219 C 14.015625 26.351562 13.457031 26.03125 12.882812 25.730469 C 12.289062 25.429688 11.628906 25.273438 10.957031 25.285156 C 10.476562 25.285156 9.992188 25.355469 9.53125 25.496094 C 9.070312 25.632812 8.621094 25.820312 8.203125 26.054688 L 5.617188 27.542969 C 6.082031 28.800781 6.734375 29.976562 7.554688 31.027344 C 8.375 32.089844 9.351562 33.019531 10.449219 33.785156 C 11.5625 34.558594 12.785156 35.164062 14.078125 35.582031 C 15.421875 36.019531 16.824219 36.234375 18.238281 36.230469 C 19.921875 36.234375 21.59375 35.941406 23.179688 35.371094 C 24.714844 34.832031 26.140625 34.023438 27.390625 32.976562 C 28.601562 31.960938 29.597656 30.707031 30.3125 29.292969 C 31.046875 27.828125 31.421875 26.207031 31.402344 24.566406 C 31.453125 22.050781 30.539062 19.613281 28.859375 17.753906 C 28.015625 16.820312 27.035156 16.027344 25.953125 15.394531 C 24.757812 14.699219 23.496094 14.128906 22.1875 13.695312 C 21.109375 13.332031 20.171875 13.039062 19.367188 12.816406 C 18.683594 12.632812 18.011719 12.40625 17.355469 12.144531 C 16.902344 11.976562 16.488281 11.710938 16.152344 11.363281 C 15.867188 11.011719 15.726562 10.570312 15.753906 10.121094 C 15.746094 9.800781 15.84375 9.484375 16.039062 9.226562 C 16.242188 8.96875 16.503906 8.757812 16.796875 8.609375 C 17.136719 8.433594 17.5 8.3125 17.878906 8.246094 C 18.292969 8.171875 18.710938 8.136719 19.132812 8.136719 C 19.523438 8.132812 19.910156 8.199219 20.273438 8.335938 Z M 20.273438 8.335938 "/>
<path style=" stroke:none;fill-rule:evenodd;fill:rgb(2.352941%,47.45098%,92.156863%);fill-opacity:1;" d="M 32.445312 35.90625 L 37.710938 35.90625 C 38.230469 35.90625 38.75 35.824219 39.25 35.671875 C 39.757812 35.515625 40.242188 35.289062 40.691406 35 C 41.132812 34.714844 41.535156 34.378906 41.894531 33.996094 C 42.238281 33.632812 42.519531 33.210938 42.726562 32.753906 L 44.417969 28.808594 L 58.574219 28.808594 L 60.3125 32.753906 C 60.523438 33.238281 60.808594 33.6875 61.15625 34.082031 C 61.5 34.464844 61.890625 34.800781 62.324219 35.074219 C 62.761719 35.347656 63.234375 35.558594 63.730469 35.695312 C 64.242188 35.835938 64.773438 35.90625 65.304688 35.90625 L 70.546875 35.90625 L 54.996094 0.34375 L 47.992188 0.34375 Z M 50.800781 13.992188 C 50.933594 13.664062 51.046875 13.347656 51.136719 13.050781 C 51.226562 12.753906 51.296875 12.488281 51.347656 12.257812 C 51.414062 11.976562 51.464844 11.71875 51.496094 11.488281 C 51.515625 11.738281 51.558594 11.988281 51.621094 12.230469 C 51.671875 12.464844 51.738281 12.726562 51.820312 13.023438 C 51.914062 13.355469 52.03125 13.679688 52.167969 13.992188 L 55.273438 21.4375 L 47.671875 21.4375 Z M 50.800781 13.992188 "/>
<path style=" stroke:none;fill-rule:evenodd;fill:rgb(2.352941%,47.45098%,92.156863%);fill-opacity:1;" d="M 82.496094 25.085938 L 86.941406 25.085938 L 92.902344 33.152344 C 93.289062 33.730469 93.765625 34.242188 94.316406 34.664062 C 94.753906 34.996094 95.230469 35.269531 95.734375 35.484375 C 96.121094 35.648438 96.523438 35.765625 96.9375 35.832031 C 97.191406 35.871094 97.441406 35.894531 97.695312 35.90625 L 104.625 35.90625 L 95.136719 23.101562 C 96.085938 22.441406 96.957031 21.671875 97.722656 20.804688 C 98.40625 20.027344 98.992188 19.164062 99.460938 18.238281 C 99.898438 17.367188 100.230469 16.445312 100.441406 15.496094 C 100.648438 14.570312 100.753906 13.625 100.753906 12.675781 C 100.75 11.699219 100.628906 10.722656 100.394531 9.773438 C 100.148438 8.789062 99.789062 7.835938 99.324219 6.933594 C 98.84375 6.003906 98.253906 5.136719 97.5625 4.351562 C 96.851562 3.546875 96.03125 2.84375 95.125 2.265625 C 94.167969 1.660156 93.132812 1.191406 92.046875 0.863281 C 90.839844 0.507812 89.589844 0.332031 88.332031 0.34375 L 74.371094 0.34375 L 74.371094 35.90625 L 82.496094 35.90625 Z M 82.496094 16.921875 L 82.496094 8.484375 L 88.753906 8.484375 C 89.257812 8.484375 89.753906 8.613281 90.195312 8.855469 C 90.65625 9.105469 91.074219 9.429688 91.425781 9.824219 C 91.78125 10.222656 92.070312 10.679688 92.28125 11.175781 C 92.710938 12.148438 92.710938 13.257812 92.28125 14.230469 C 92.070312 14.722656 91.78125 15.179688 91.425781 15.582031 C 91.074219 15.972656 90.65625 16.300781 90.195312 16.550781 C 89.753906 16.792969 89.257812 16.917969 88.753906 16.921875 Z M 82.496094 16.921875 "/>
<path style=" stroke:none;fill-rule:evenodd;fill:rgb(99.607843%,51.372549%,2.352941%);fill-opacity:1;" d="M 103.746094 35.90625 L 109.015625 35.90625 C 109.535156 35.90625 110.054688 35.824219 110.554688 35.671875 C 111.0625 35.515625 111.546875 35.289062 111.996094 35 C 112.4375 34.714844 112.839844 34.378906 113.199219 33.996094 C 113.542969 33.632812 113.824219 33.210938 114.03125 32.753906 L 115.71875 28.808594 L 129.878906 28.808594 L 131.617188 32.753906 C 131.824219 33.238281 132.109375 33.6875 132.460938 34.082031 C 132.804688 34.464844 133.195312 34.800781 133.628906 35.074219 C 134.0625 35.347656 134.535156 35.558594 135.03125 35.695312 C 135.546875 35.835938 136.078125 35.90625 136.609375 35.90625 L 141.851562 35.90625 L 126.300781 0.34375 L 119.296875 0.34375 Z M 122.105469 13.992188 C 122.238281 13.664062 122.347656 13.347656 122.441406 13.050781 C 122.53125 12.753906 122.601562 12.488281 122.652344 12.257812 C 122.714844 11.976562 122.765625 11.71875 122.800781 11.488281 C 122.820312 11.738281 122.859375 11.988281 122.925781 12.230469 C 122.972656 12.464844 123.039062 12.726562 123.121094 13.023438 C 123.21875 13.355469 123.332031 13.679688 123.46875 13.992188 L 126.574219 21.4375 L 118.976562 21.4375 Z M 122.105469 13.992188 "/>
<path style=" stroke:none;fill-rule:evenodd;fill:rgb(99.607843%,51.372549%,2.352941%);fill-opacity:1;" d="M 150.589844 14.230469 C 151.117188 13.039062 151.867188 11.960938 152.800781 11.050781 C 153.738281 10.144531 154.832031 9.417969 156.03125 8.90625 C 157.261719 8.375 158.589844 8.105469 159.929688 8.113281 C 160.9375 8.105469 161.941406 8.265625 162.898438 8.582031 C 163.835938 8.898438 164.726562 9.339844 165.542969 9.898438 C 166.417969 10.503906 167.460938 10.824219 168.523438 10.816406 C 169.273438 10.828125 170.019531 10.679688 170.710938 10.382812 C 171.347656 10.097656 171.929688 9.699219 172.421875 9.203125 L 174.535156 7.09375 C 173.527344 6.023438 172.4375 5.035156 171.269531 4.140625 C 170.148438 3.285156 168.953125 2.535156 167.691406 1.90625 C 166.472656 1.300781 165.195312 0.828125 163.878906 0.492188 C 162.585938 0.164062 161.261719 -0.00390625 159.929688 -0.00390625 C 158.292969 -0.0078125 156.664062 0.207031 155.085938 0.640625 C 153.558594 1.058594 152.089844 1.671875 150.714844 2.464844 C 146.609375 4.828125 143.589844 8.714844 142.304688 13.285156 C 141.425781 16.441406 141.425781 19.78125 142.304688 22.9375 C 143.597656 27.507812 146.613281 31.390625 150.714844 33.757812 C 152.085938 34.550781 153.558594 35.164062 155.085938 35.582031 C 156.664062 36.015625 158.292969 36.234375 159.929688 36.226562 C 161.261719 36.226562 162.589844 36.0625 163.878906 35.730469 C 165.195312 35.398438 166.476562 34.921875 167.691406 34.316406 C 168.953125 33.6875 170.148438 32.941406 171.269531 32.082031 C 172.4375 31.191406 173.53125 30.203125 174.535156 29.128906 L 172.425781 27.019531 C 171.9375 26.527344 171.367188 26.128906 170.734375 25.84375 C 170.035156 25.554688 169.28125 25.414062 168.523438 25.433594 C 167.464844 25.417969 166.421875 25.730469 165.542969 26.328125 C 164.730469 26.875 163.847656 27.3125 162.921875 27.628906 C 161.957031 27.957031 160.949219 28.121094 159.929688 28.113281 C 158.589844 28.121094 157.265625 27.855469 156.03125 27.332031 C 153.605469 26.316406 151.660156 24.40625 150.589844 21.996094 C 149.496094 19.523438 149.496094 16.703125 150.589844 14.230469 Z M 150.589844 14.230469 "/>
<path style=" stroke:none;fill-rule:evenodd;fill:rgb(99.607843%,51.372549%,2.352941%);fill-opacity:1;" d="M 175.789062 35.90625 L 181.054688 35.90625 C 181.574219 35.90625 182.09375 35.824219 182.59375 35.671875 C 183.101562 35.515625 183.585938 35.289062 184.035156 35 C 184.476562 34.714844 184.878906 34.378906 185.238281 33.996094 C 185.585938 33.632812 185.867188 33.210938 186.070312 32.753906 L 187.761719 28.808594 L 201.917969 28.808594 L 203.65625 32.753906 C 203.867188 33.238281 204.152344 33.6875 204.503906 34.082031 C 204.84375 34.464844 205.238281 34.800781 205.667969 35.074219 C 206.105469 35.351562 206.578125 35.558594 207.074219 35.695312 C 207.585938 35.835938 208.117188 35.90625 208.652344 35.90625 L 213.890625 35.90625 L 198.34375 0.34375 L 191.335938 0.34375 Z M 194.144531 13.992188 C 194.277344 13.664062 194.390625 13.347656 194.480469 13.050781 C 194.570312 12.753906 194.640625 12.488281 194.691406 12.257812 C 194.757812 11.976562 194.808594 11.71875 194.839844 11.488281 C 194.859375 11.738281 194.902344 11.988281 194.964844 12.230469 C 195.015625 12.464844 195.082031 12.726562 195.164062 13.023438 C 195.257812 13.355469 195.375 13.679688 195.511719 13.992188 L 198.617188 21.4375 L 191.015625 21.4375 Z M 194.144531 13.992188 "/>
<path style=" stroke:none;fill-rule:evenodd;fill:rgb(27.843137%,30.588235%,32.941176%);fill-opacity:1;" d="M 6.941406 53.832031 L 8 53.832031 L 8 43.253906 L 6.941406 43.253906 Z M 13.207031 44.289062 L 13.207031 53.832031 L 14.289062 53.832031 L 14.289062 44.289062 L 16.648438 44.289062 L 16.648438 43.253906 L 10.847656 43.253906 L 10.847656 44.289062 Z M 41.875 53.832031 L 47.902344 53.832031 L 47.902344 52.796875 L 42.933594 52.796875 L 42.933594 48.640625 L 47.902344 48.640625 L 47.902344 47.605469 L 42.933594 47.605469 L 42.933594 44.289062 L 47.945312 44.289062 L 47.945312 43.253906 L 41.875 43.253906 Z M 51.304688 53.832031 L 52.363281 53.832031 L 52.363281 48.917969 L 52.960938 48.917969 L 56.769531 53.832031 L 58.078125 53.832031 L 54.269531 48.917969 C 54.980469 48.945312 55.691406 48.828125 56.355469 48.578125 C 56.835938 48.375 57.242188 48.027344 57.519531 47.585938 C 57.796875 47.128906 57.9375 46.601562 57.925781 46.066406 C 57.945312 45.433594 57.734375 44.8125 57.335938 44.320312 C 56.941406 43.847656 56.402344 43.523438 55.800781 43.398438 C 55.011719 43.273438 54.210938 43.226562 53.414062 43.253906 L 51.304688 43.253906 Z M 54.230469 44.289062 C 54.753906 44.261719 55.28125 44.324219 55.785156 44.476562 C 56.097656 44.597656 56.363281 44.816406 56.542969 45.097656 C 56.734375 45.382812 56.835938 45.722656 56.832031 46.066406 C 56.835938 46.414062 56.738281 46.757812 56.546875 47.054688 C 56.359375 47.347656 56.082031 47.574219 55.753906 47.699219 C 55.25 47.855469 54.71875 47.925781 54.1875 47.898438 L 52.363281 47.882812 L 52.363281 44.289062 Z M 68.34375 50.984375 L 67.292969 49.917969 L 65.6875 48.238281 C 66.25 47.796875 66.75 47.28125 67.167969 46.703125 C 67.394531 46.367188 67.523438 45.972656 67.539062 45.570312 C 67.539062 45.230469 67.441406 44.898438 67.253906 44.617188 C 67.046875 44.304688 66.757812 44.054688 66.417969 43.902344 C 66.039062 43.71875 65.628906 43.628906 65.207031 43.632812 C 64.570312 43.613281 63.945312 43.828125 63.453125 44.238281 C 63.058594 44.554688 62.832031 45.039062 62.839844 45.546875 C 62.847656 45.878906 62.933594 46.203125 63.089844 46.5 C 63.410156 47.050781 63.785156 47.570312 64.207031 48.046875 C 63.179688 48.859375 62.5 49.527344 62.167969 50.058594 C 61.855469 50.527344 61.679688 51.078125 61.667969 51.644531 C 61.652344 52.308594 61.921875 52.945312 62.410156 53.394531 C 62.949219 53.878906 63.652344 54.132812 64.375 54.097656 C 64.972656 54.101562 65.566406 53.992188 66.125 53.773438 C 66.902344 53.414062 67.625 52.949219 68.273438 52.386719 L 69.679688 53.832031 L 71.15625 53.832031 C 70.890625 53.523438 70.578125 53.1875 70.210938 52.824219 C 69.75 52.363281 69.375 52 69.085938 51.734375 C 69.539062 51.40625 69.976562 51.050781 70.398438 50.679688 L 69.679688 49.917969 C 69.253906 50.296875 68.808594 50.652344 68.347656 50.984375 Z M 64.035156 46.109375 C 63.941406 45.945312 63.890625 45.757812 63.890625 45.566406 C 63.898438 45.308594 64.027344 45.066406 64.246094 44.921875 C 64.511719 44.730469 64.835938 44.632812 65.160156 44.648438 C 65.5 44.632812 65.832031 44.722656 66.109375 44.914062 C 66.328125 45.050781 66.460938 45.289062 66.46875 45.546875 C 66.449219 45.808594 66.355469 46.0625 66.195312 46.273438 C 65.871094 46.722656 65.480469 47.117188 65.035156 47.445312 C 64.65625 47.03125 64.324219 46.585938 64.035156 46.105469 Z M 65.871094 49.910156 L 67.539062 51.628906 C 66.945312 52.125 66.289062 52.546875 65.589844 52.875 C 65.238281 53.023438 64.863281 53.101562 64.484375 53.105469 C 64.023438 53.117188 63.574219 52.949219 63.230469 52.640625 C 62.910156 52.378906 62.722656 51.984375 62.71875 51.570312 C 62.742188 51.167969 62.886719 50.777344 63.136719 50.460938 C 63.414062 50.058594 64.003906 49.523438 64.90625 48.84375 C 65.257812 49.253906 65.582031 49.609375 65.867188 49.910156 Z M 77.667969 53.832031 C 78.988281 53.832031 80.011719 53.640625 80.742188 53.257812 C 81.5 52.847656 82.117188 52.230469 82.527344 51.472656 C 83 50.617188 83.234375 49.652344 83.214844 48.675781 C 83.246094 47.554688 82.941406 46.449219 82.347656 45.503906 C 81.78125 44.625 80.929688 43.964844 79.941406 43.632812 C 79.226562 43.378906 78.078125 43.253906 76.492188 43.253906 L 74.296875 43.253906 L 74.296875 53.832031 Z M 75.3125 44.289062 L 76.0625 44.289062 C 77.582031 44.289062 78.675781 44.390625 79.335938 44.589844 C 80.179688 44.828125 80.910156 45.355469 81.402344 46.078125 C 81.914062 46.851562 82.171875 47.765625 82.144531 48.691406 C 82.171875 49.566406 81.933594 50.429688 81.460938 51.160156 C 81.011719 51.828125 80.347656 52.324219 79.582031 52.558594 C 79.015625 52.742188 78 52.832031 76.535156 52.832031 L 75.3125 52.832031 Z M 116.867188 43.574219 C 116.03125 43.171875 115.113281 42.972656 114.1875 42.988281 C 112.667969 42.941406 111.195312 43.511719 110.101562 44.574219 C 109.035156 45.585938 108.441406 47.003906 108.472656 48.480469 C 108.441406 49.863281 108.917969 51.203125 109.820312 52.25 C 110.890625 53.480469 112.351562 54.097656 114.203125 54.097656 C 115.113281 54.109375 116.015625 53.921875 116.847656 53.546875 C 117.621094 53.195312 118.296875 52.660156 118.824219 51.992188 L 117.988281 51.359375 C 117.078125 52.476562 115.707031 53.117188 114.265625 53.097656 C 113.023438 53.136719 111.8125 52.671875 110.917969 51.804688 C 110.039062 50.964844 109.558594 49.789062 109.589844 48.574219 C 109.578125 47.765625 109.78125 46.972656 110.183594 46.269531 C 110.582031 45.582031 111.160156 45.019531 111.855469 44.636719 C 112.570312 44.234375 113.382812 44.023438 114.203125 44.03125 C 114.9375 44.023438 115.664062 44.179688 116.328125 44.492188 C 116.980469 44.808594 117.550781 45.277344 117.988281 45.855469 L 118.824219 45.214844 C 118.316406 44.511719 117.644531 43.949219 116.863281 43.574219 Z M 124.703125 43.722656 C 123.863281 44.207031 123.164062 44.914062 122.691406 45.761719 C 122.199219 46.625 121.945312 47.597656 121.953125 48.589844 C 121.929688 50.058594 122.515625 51.46875 123.574219 52.488281 C 124.621094 53.546875 126.058594 54.128906 127.550781 54.097656 C 129.023438 54.109375 130.441406 53.53125 131.484375 52.484375 C 132.53125 51.441406 133.117188 50.019531 133.109375 48.539062 C 133.140625 47.054688 132.554688 45.621094 131.488281 44.589844 C 130.421875 43.527344 128.964844 42.949219 127.460938 42.988281 C 126.492188 42.980469 125.542969 43.234375 124.703125 43.722656 Z M 129.773438 44.628906 C 130.460938 45.011719 131.03125 45.574219 131.425781 46.257812 C 131.824219 46.949219 132.023438 47.738281 132.015625 48.535156 C 132.023438 49.339844 131.820312 50.136719 131.425781 50.839844 C 131.042969 51.523438 130.476562 52.089844 129.789062 52.472656 C 129.097656 52.867188 128.308594 53.074219 127.507812 53.070312 C 126.324219 53.074219 125.183594 52.605469 124.347656 51.761719 C 123.507812 50.917969 123.039062 49.777344 123.046875 48.585938 C 123.035156 47.777344 123.242188 46.980469 123.636719 46.273438 C 124.441406 44.886719 125.910156 44.03125 127.507812 44.015625 C 128.304688 44.015625 129.085938 44.226562 129.773438 44.628906 Z M 137.808594 53.832031 L 137.808594 45.820312 L 144.796875 53.832031 L 145.035156 53.832031 L 145.035156 43.253906 L 143.992188 43.253906 L 143.992188 51.359375 L 136.945312 43.253906 L 136.714844 43.253906 L 136.714844 53.832031 Z M 149.4375 53.582031 C 149.957031 53.925781 150.566406 54.105469 151.1875 54.097656 C 151.980469 54.113281 152.746094 53.808594 153.3125 53.25 C 153.875 52.738281 154.191406 52.011719 154.1875 51.25 C 154.175781 50.683594 154 50.128906 153.675781 49.660156 C 153.335938 49.132812 152.707031 48.53125 151.792969 47.855469 C 151.019531 47.285156 150.5625 46.933594 150.421875 46.800781 C 150.207031 46.597656 150.027344 46.359375 149.898438 46.09375 C 149.800781 45.882812 149.753906 45.65625 149.753906 45.425781 C 149.746094 45.0625 149.894531 44.714844 150.160156 44.46875 C 150.445312 44.203125 150.820312 44.066406 151.207031 44.078125 C 151.53125 44.078125 151.847656 44.164062 152.125 44.332031 C 152.523438 44.617188 152.867188 44.96875 153.144531 45.375 L 154.007812 44.71875 C 153.644531 44.175781 153.175781 43.710938 152.628906 43.355469 C 152.203125 43.113281 151.71875 42.984375 151.226562 42.988281 C 150.773438 42.984375 150.324219 43.097656 149.921875 43.3125 C 149.535156 43.519531 149.210938 43.828125 148.988281 44.210938 C 148.769531 44.589844 148.652344 45.027344 148.660156 45.46875 C 148.660156 46.054688 148.859375 46.625 149.222656 47.085938 C 149.4375 47.382812 149.984375 47.863281 150.871094 48.53125 C 151.550781 49.007812 152.164062 49.578125 152.683594 50.226562 C 152.910156 50.527344 153.035156 50.894531 153.042969 51.269531 C 153.042969 51.582031 152.957031 51.886719 152.796875 52.15625 C 152.628906 52.4375 152.382812 52.667969 152.085938 52.820312 C 151.777344 52.984375 151.433594 53.070312 151.085938 53.066406 C 150.253906 53.066406 149.523438 52.484375 148.890625 51.320312 L 147.992188 51.859375 C 148.328125 52.542969 148.824219 53.132812 149.4375 53.582031 Z M 157.9375 49.640625 C 157.9375 50.714844 158 51.457031 158.132812 51.867188 C 158.335938 52.535156 158.769531 53.109375 159.355469 53.484375 C 160.007812 53.90625 160.773438 54.121094 161.550781 54.097656 C 162.273438 54.117188 162.984375 53.890625 163.5625 53.449219 C 164.078125 53.070312 164.464844 52.539062 164.671875 51.929688 C 164.875 51.183594 164.96875 50.410156 164.945312 49.636719 L 164.945312 43.253906 L 163.890625 43.253906 L 163.890625 49.640625 C 163.910156 50.191406 163.875 50.746094 163.78125 51.292969 C 163.691406 51.640625 163.53125 51.96875 163.304688 52.25 C 163.089844 52.515625 162.8125 52.726562 162.5 52.867188 C 162.183594 53.015625 161.839844 53.09375 161.492188 53.089844 C 161.074219 53.089844 160.664062 52.992188 160.289062 52.808594 C 159.9375 52.65625 159.632812 52.414062 159.40625 52.101562 C 159.199219 51.789062 159.074219 51.429688 159.039062 51.054688 C 159 50.585938 158.984375 50.113281 158.996094 49.640625 L 158.996094 43.253906 L 157.9375 43.253906 Z M 169.027344 53.832031 L 174.15625 53.832031 L 174.15625 52.808594 L 170.085938 52.808594 L 170.085938 43.253906 L 169.027344 43.253906 Z M 178.617188 44.289062 L 178.617188 53.832031 L 179.699219 53.832031 L 179.699219 44.289062 L 182.058594 44.289062 L 182.058594 43.253906 L 176.257812 43.253906 L 176.257812 44.289062 L 178.621094 44.289062 Z M 184.90625 53.832031 L 185.964844 53.832031 L 185.964844 43.253906 L 184.90625 43.253906 Z M 190.96875 53.832031 L 190.96875 45.820312 L 197.957031 53.832031 L 198.195312 53.832031 L 198.195312 43.253906 L 197.148438 43.253906 L 197.148438 51.359375 L 190.105469 43.253906 L 189.875 43.253906 L 189.875 53.832031 Z M 210.140625 43.472656 C 209.335938 43.148438 208.472656 42.980469 207.605469 42.988281 C 206.566406 42.96875 205.542969 43.222656 204.625 43.71875 C 202.878906 44.6875 201.792969 46.535156 201.796875 48.539062 C 201.785156 49.847656 202.253906 51.117188 203.117188 52.097656 C 204.257812 53.429688 205.808594 54.097656 207.765625 54.097656 C 209.378906 54.097656 210.664062 53.617188 211.628906 52.65625 C 212.589844 51.695312 213.074219 50.394531 213.085938 48.761719 L 208.519531 48.761719 L 208.519531 49.78125 L 211.898438 49.78125 C 211.777344 50.722656 211.296875 51.582031 210.558594 52.171875 C 209.773438 52.792969 208.792969 53.121094 207.792969 53.089844 C 206.929688 53.097656 206.078125 52.886719 205.316406 52.476562 C 204.585938 52.085938 203.972656 51.503906 203.546875 50.789062 C 203.128906 50.105469 202.910156 49.320312 202.90625 48.519531 C 202.90625 47.738281 203.121094 46.972656 203.527344 46.308594 C 203.945312 45.605469 204.546875 45.03125 205.273438 44.648438 C 205.996094 44.25 206.8125 44.039062 207.644531 44.039062 C 208.351562 44.046875 209.050781 44.199219 209.699219 44.488281 C 210.421875 44.800781 211.078125 45.25 211.636719 45.808594 L 212.457031 45.03125 C 211.789062 44.371094 211.003906 43.84375 210.140625 43.472656 Z M 210.140625 43.472656 "/>
<path style=" stroke:none;fill-rule:nonzero;fill:rgb(27.843137%,30.588235%,32.941176%);fill-opacity:1;" d="M 93.867188 43.9375 L 94.84375 43.9375 L 94.84375 53.753906 L 93.867188 53.753906 Z M 93.867188 43.9375 "/>
<path style=" stroke:none;fill-rule:nonzero;fill:rgb(27.843137%,30.588235%,32.941176%);fill-opacity:1;" d="M 27.867188 43.9375 L 28.84375 43.9375 L 28.84375 53.753906 L 27.867188 53.753906 Z M 27.867188 43.9375 "/>
</g>
</svg>
